<mxfile host="app.diagrams.net" modified="2020-12-16T06:19:06.230Z" agent="5.0 (Windows NT 10.0; Win64; x64) AppleWebKit/537.36 (KHTML, like Gecko) Chrome/84.0.4147.125 Safari/537.36" etag="-wnj6Pa5XJMR-ZS6OBGw" version="14.0.3" type="github">
  <diagram name="Page-1" id="d9b1e647-80fa-b4a2-5024-87a742678bcc">
    <mxGraphModel dx="1422" dy="713" grid="1" gridSize="10" guides="1" tooltips="1" connect="1" arrows="1" fold="1" page="1" pageScale="1" pageWidth="1100" pageHeight="850" background="#ffffff" math="0" shadow="0">
      <root>
        <mxCell id="0" />
        <mxCell id="1" parent="0" />
        <mxCell id="57fe6abec08f04cb-1" value="描述性分析" style="shape=step;whiteSpace=wrap;html=1;fontSize=28;fillColor=#0080FF;fontColor=#FFFFFF;strokeColor=none;size=0.17391304347826086;" parent="1" vertex="1">
          <mxGeometry x="10" y="180" width="290" height="80" as="geometry" />
        </mxCell>
        <mxCell id="57fe6abec08f04cb-2" value="诊断性分析" style="shape=step;whiteSpace=wrap;html=1;fontSize=28;fillColor=#0075E8;fontColor=#FFFFFF;strokeColor=none;" parent="1" vertex="1">
          <mxGeometry x="270" y="180" width="290" height="80" as="geometry" />
        </mxCell>
        <mxCell id="57fe6abec08f04cb-3" value="预测性分析" style="shape=step;whiteSpace=wrap;html=1;fontSize=28;fillColor=#0067CC;fontColor=#FFFFFF;strokeColor=none;" parent="1" vertex="1">
          <mxGeometry x="530" y="180" width="290" height="80" as="geometry" />
        </mxCell>
        <mxCell id="57fe6abec08f04cb-4" value="处方性分析" style="shape=step;whiteSpace=wrap;html=1;fontSize=28;fillColor=#0062C4;fontColor=#FFFFFF;strokeColor=none;" parent="1" vertex="1">
          <mxGeometry x="790" y="180" width="290" height="80" as="geometry" />
        </mxCell>
        <mxCell id="57fe6abec08f04cb-7" value="&lt;font color=&quot;#ffffff&quot;&gt;商业分析的四个层次&lt;/font&gt;" style="text;html=1;strokeColor=none;fillColor=#61BAFF;align=center;verticalAlign=middle;whiteSpace=wrap;fontSize=54;fontStyle=1;fontColor=#004D99;" parent="1" vertex="1">
          <mxGeometry x="10" y="110" width="1070" height="60" as="geometry" />
        </mxCell>
        <mxCell id="57fe6abec08f04cb-8" value="&lt;font style=&quot;font-size: 18px ; background-color: rgb(0 , 128 , 255)&quot;&gt;&lt;span style=&quot;font-family: &amp;#34;pingfang sc&amp;#34; , &amp;#34;helvetica neue&amp;#34; , &amp;#34;helvetica&amp;#34; , &amp;#34;arial&amp;#34; , &amp;#34;microsoft yahei&amp;#34; , sans-serif ; text-align: justify&quot;&gt;&lt;font color=&quot;#ffff00&quot;&gt;发生了什么&lt;/font&gt;&lt;/span&gt;&lt;font color=&quot;#ffffff&quot;&gt;, 顾名思义，&lt;span style=&quot;font-family: &amp;#34;pingfang sc&amp;#34; , &amp;#34;helvetica neue&amp;#34; , &amp;#34;helvetica&amp;#34; , &amp;#34;arial&amp;#34; , &amp;#34;microsoft yahei&amp;#34; , sans-serif ; text-align: justify&quot;&gt;该层次主要是对已经发生的事实用数据做出准确的描述。比如某企业本月订单签约额比上月增加100万，至1100万，但是订单履约率从上月的98%下降到了95%，库存周转率从上月的0.8下降到了0.7。&lt;/span&gt;&lt;/font&gt;&lt;/font&gt;" style="text;spacingTop=-5;whiteSpace=wrap;html=1;align=left;fontSize=12;fontFamily=Helvetica;strokeColor=none;fillColor=#0080FF;" parent="1" vertex="1">
          <mxGeometry x="20" y="270" width="230" height="290" as="geometry" />
        </mxCell>
        <mxCell id="57fe6abec08f04cb-9" value="&lt;font style=&quot;font-size: 18px ; background-color: rgb(0 , 117 , 232)&quot;&gt;&lt;span style=&quot;font-family: &amp;#34;pingfang sc&amp;#34; , &amp;#34;helvetica neue&amp;#34; , &amp;#34;helvetica&amp;#34; , &amp;#34;arial&amp;#34; , &amp;#34;microsoft yahei&amp;#34; , sans-serif ; text-align: justify&quot;&gt;&lt;font color=&quot;#ffff00&quot;&gt;为什么会发生&lt;/font&gt;&lt;/span&gt;&lt;font color=&quot;#ffffff&quot;&gt;,&amp;nbsp;&lt;span style=&quot;font-family: &amp;#34;pingfang sc&amp;#34; , &amp;#34;helvetica neue&amp;#34; , &amp;#34;helvetica&amp;#34; , &amp;#34;arial&amp;#34; , &amp;#34;microsoft yahei&amp;#34; , sans-serif ; text-align: justify&quot;&gt;知道到底发生了什么，对我们的帮助不大，更重要的是，我们要明白为什么发生。比如经过分析，发现上文提到的订单履约率下降的原因是成品生产不出来，无法完成交付。而成品生成不出来的原因则是部分原材料的供应商未能按时送货，导致原材料不齐套，无法开始生产。&lt;/span&gt;&lt;/font&gt;&lt;/font&gt;" style="text;spacingTop=-5;whiteSpace=wrap;html=1;align=left;fontSize=12;fontFamily=Helvetica;strokeColor=none;fillColor=#0075E8;" parent="1" vertex="1">
          <mxGeometry x="272" y="270" width="230" height="290" as="geometry" />
        </mxCell>
        <mxCell id="57fe6abec08f04cb-10" value="&lt;font style=&quot;font-size: 18px ; background-color: rgb(0 , 103 , 204)&quot;&gt;&lt;span style=&quot;font-family: &amp;#34;pingfang sc&amp;#34; , &amp;#34;helvetica neue&amp;#34; , &amp;#34;helvetica&amp;#34; , &amp;#34;arial&amp;#34; , &amp;#34;microsoft yahei&amp;#34; , sans-serif ; text-align: justify&quot;&gt;&lt;font color=&quot;#ffff00&quot;&gt;什么可能会发生&lt;/font&gt;&lt;/span&gt;&lt;font color=&quot;#ffffff&quot;&gt;,&amp;nbsp;&lt;span style=&quot;font-family: &amp;#34;pingfang sc&amp;#34; , &amp;#34;helvetica neue&amp;#34; , &amp;#34;helvetica&amp;#34; , &amp;#34;arial&amp;#34; , &amp;#34;microsoft yahei&amp;#34; , sans-serif ; text-align: justify&quot;&gt;基于上述两个层次的分析，我们发现了其中的规律，即原材料供应商的送货及时率会影响成品订单的履约率。假如上月某原材料供应商A送货及时率只有70%，通过建模，我们可以预测本月该供应商会使我们的订单履约率下降2%。&lt;/span&gt;&lt;/font&gt;&lt;/font&gt;" style="text;spacingTop=-5;whiteSpace=wrap;html=1;align=left;fontSize=12;fontFamily=Helvetica;strokeColor=none;fillColor=#0067cc;" parent="1" vertex="1">
          <mxGeometry x="531" y="270" width="230" height="290" as="geometry" />
        </mxCell>
        <mxCell id="57fe6abec08f04cb-11" value="&lt;font style=&quot;font-size: 18px ; background-color: rgb(0 , 98 , 196)&quot;&gt;&lt;span style=&quot;font-family: &amp;#34;pingfang sc&amp;#34; , &amp;#34;helvetica neue&amp;#34; , &amp;#34;helvetica&amp;#34; , &amp;#34;arial&amp;#34; , &amp;#34;microsoft yahei&amp;#34; , sans-serif ; text-align: justify&quot;&gt;&lt;font color=&quot;#ffff00&quot;&gt;该做些什么&lt;/font&gt;&lt;font color=&quot;#ffffff&quot;&gt;，&lt;/font&gt;&lt;/span&gt;&lt;span style=&quot;color: rgb(255 , 255 , 255) ; font-family: &amp;#34;pingfang sc&amp;#34; , &amp;#34;helvetica neue&amp;#34; , &amp;#34;helvetica&amp;#34; , &amp;#34;arial&amp;#34; , &amp;#34;microsoft yahei&amp;#34; , sans-serif ; text-align: justify&quot;&gt;有了预测性分析的结果后，我们无需再做事后诸葛亮，而可以运筹帷幄，在事前就采取措施。上例中，供应商A会导致本月我们的订单履约率下降，我们可能采取的措施就是把A换掉，但是现在有B和C两个供应商供我们选择，该选择哪个呢？通过分析和计算得出：选用供应商B会比选C的订单履约率高1%，因此建议选择供应商B。这就是处方性分析。&lt;/span&gt;&lt;/font&gt;" style="text;spacingTop=-5;whiteSpace=wrap;html=1;align=left;fontSize=12;fontFamily=Helvetica;strokeColor=none;fillColor=#0062C4;" parent="1" vertex="1">
          <mxGeometry x="790" y="270" width="230" height="290" as="geometry" />
        </mxCell>
      </root>
    </mxGraphModel>
  </diagram>
</mxfile>
